{"title":"[Milfs Like ItBig] - The Big Cock Coffe Club","uid":11160318,"size":378380813,"categoryP":"porn","categoryS":"movie_clips","magnet":"?xt=urn:btih:1a8c861424a5662f79aa8ecc8c46dc4976f9fc4d&amp;dn=%5BMilfs+Like+ItBig%5D+-+The+Big+Cock+Coffe+Club+&amp;tr=udp%3A%2F%2Ftracker.openbittorrent.com%3A80&amp;tr=udp%3A%2F%2Fopen.demonii.com%3A1337&amp;tr=udp%3A%2F%2Ftracker.coppersurfer.tk%3A6969&amp;tr=udp%3A%2F%2Fexodus.desync.com%3A6969","seeders":0,"leechers":1,"uploader":"supertongo","files":1,"time":1412520297,"description":"[Milfs Like ItBig] - The Big Cock Coffe Club Phoenix Marie and Brandi Edwards\n\n:::Media info:::\n\nGeneral\n\nFormat                         : MPEG-4\nFormat profile                 : Base Media\nCodec ID                       : isom\nFile size                      : 361 MiB\nDuration                       : 41mn 25s\nOverall bit rate mode          : Variable\nOverall bit rate               : 1 218 Kbps\n\nVideo\nID                             : 1\nFormat                         : AVC\nFormat/Info                    : Advanced Video Codec\nFormat profile                 : &lt;a class=&quot;__cf_email__&quot; href=&quot;/cdn-cgi/l/email-protection&quot; data-cfemail=&quot;bffddeccdad3d6d1dafff38e918c&quot;&gt;[email&amp;#160;protected]&lt;/a&gt;&lt;script cf-hash='f9e31' type=&quot;text/javascript&quot;&gt;\n/* &lt;![CDATA[ */!function(){try{var t=&quot;currentScript&quot;in document?document.currentScript:function(){for(var t=document.getElementsByTagName(&quot;script&quot;),e=t.length;e--;)if(t[e].getAttribute(&quot;cf-hash&quot;))return t[e]}();if(t&amp;&amp;t.previousSibling){var e,r,n,i,c=t.previousSibling,a=c.getAttribute(&quot;data-cfemail&quot;);if(a){for(e=&quot;&quot;,r=parseInt(a.substr(0,2),16),n=2;a.length-n;n+=2)i=parseInt(a.substr(n,2),16)^r,e+=String.fromCharCode(i);e=document.createTextNode(e),c.parentNode.replaceChild(e,c)}}}catch(u){}}();/* ]]&gt; */&lt;/script&gt;\nFormat settings, CABAC         : No\nFormat settings, ReFrames      : 1 frame\nCodec ID                       : avc1\nCodec ID/Info                  : Advanced Video Coding\nDuration                       : 41mn 25s\nBit rate                       : 1 100 Kbps\nMaximum bit rate               : 1 762 Kbps\nWidth                          : 768 pixels\nHeight                         : 432 pixels\nDisplay aspect ratio           : 16:9\nFrame rate mode                : Variable\nFrame rate                     : 29.970 fps\nMinimum frame rate             : 14.985 fps\nMaximum frame rate             : 29.970 fps\nColor space                    : YUV\nChroma subsampling             : 4:2:0\nBit depth                      : 8 bits\nScan type                      : Progressive\nBits/(Pixel*Frame)             : 0.111\nStream size                    : 326 MiB (90%)\n\n\nAudio\nID                             : 2\nFormat                         : AAC\nFormat/Info                    : Advanced Audio Codec\nFormat profile                 : LC\nCodec ID                       : 40\nDuration                       : 41mn 25s\nBit rate mode                  : Variable\nBit rate                       : 116 Kbps\nMaximum bit rate               : 157 Kbps\nChannel(s)                     : 2 channels\nChannel positions              : Front: L R\nSampling rate                  : 22.05 KHz\nCompression mode               : Lossy\nStream size                    : 34.5 MiB (10%)\n\nScreens:\n &lt;a href=&quot;\nhttp://bayimg.com/HAAnOaAGn&quot; rel=&quot;nofollow&quot; target=&quot;_NEW&quot;&gt;\nhttp://bayimg.com/HAAnOaAGn&lt;/a&gt;","torrent":{"xt":"urn:btih:1a8c861424a5662f79aa8ecc8c46dc4976f9fc4d","amp;dn":"%5BMilfs+Like+ItBig%5D+-+The+Big+Cock+Coffe+Club+","amp;tr":["udp%3A%2F%2Ftracker.openbittorrent.com%3A80","udp%3A%2F%2Fopen.demonii.com%3A1337","udp%3A%2F%2Ftracker.coppersurfer.tk%3A6969","udp%3A%2F%2Fexodus.desync.com%3A6969"],"infoHash":"1a8c861424a5662f79aa8ecc8c46dc4976f9fc4d","infoHashBuffer":{"type":"Buffer","data":[26,140,134,20,36,165,102,47,121,170,142,204,140,70,220,73,118,249,252,77]},"announce":[],"urlList":[]}}